<svg xmlns="http://www.w3.org/2000/svg" style="display: none;"><symbol id="alta-qualidade" viewBox="0 0 512 512"><title>alta-qualidade</title><path d="m41.075 358.826-36.681 36.686c-3.676 3.676-5.187 8.993-3.992 14.053 1.194 5.06 4.924 9.14 9.855 10.784l61.048 20.347 20.347 61.048c1.644 4.932 5.724 8.661 10.784 9.855s10.377-.316 14.053-3.992l47.24-47.235c-50.91-19.932-93.857-55.851-122.654-101.546z"/><path d="m507.606 395.512-36.682-36.685c-28.797 45.695-71.744 81.614-122.653 101.545l47.24 47.235c3.676 3.676 8.993 5.187 14.053 3.992 5.06-1.194 9.14-4.924 10.784-9.855l20.347-61.048 61.048-20.347c4.932-1.644 8.661-5.724 9.855-10.784 1.195-5.06-.316-10.378-3.992-14.053z"/><path d="m271.371 193.807-15.371-23.153-15.371 23.153c-1.993 3.001-4.999 5.185-8.469 6.153l-26.771 7.463 17.271 21.772c2.239 2.823 3.387 6.356 3.235 9.956l-1.174 27.765 26.045-9.697c3.376-1.257 7.092-1.257 10.468 0l26.045 9.697-1.174-27.765c-.152-3.6.996-7.133 3.235-9.956l17.271-21.772-26.771-7.463c-3.47-.968-6.477-3.151-8.469-6.153z"/><path d="m256 94.267c-71.462 0-129.6 58.138-129.6 129.6 7.119 171.932 252.108 171.882 259.2-.001 0-71.461-58.138-129.599-129.6-129.599zm88.157 114.097-27.843 35.099 1.893 44.76c.212 5.021-2.104 9.815-6.17 12.769-4.065 2.953-9.339 3.676-14.051 1.922l-41.986-15.632-41.986 15.632c-4.711 1.754-9.986 1.031-14.051-1.922-4.066-2.954-6.382-7.748-6.17-12.769l1.893-44.76-27.843-35.099c-3.124-3.938-4.067-9.178-2.515-13.958 1.553-4.78 5.397-8.464 10.238-9.814l43.158-12.031 24.778-37.325c5.726-8.878 19.269-8.875 24.994 0l24.778 37.325 43.158 12.031c4.841 1.35 8.685 5.034 10.238 9.814 1.554 4.781.61 10.021-2.513 13.958z"/><path d="m479.867 223.867c0-123.441-100.427-223.867-223.867-223.867-296.99 12.297-296.903 435.482.002 447.734 123.438-.001 223.865-100.427 223.865-223.867zm-223.867 159.6c-88.004 0-159.6-71.596-159.6-159.6 8.767-211.731 310.466-211.67 319.201.001-.001 88.003-71.597 159.599-159.601 159.599z"/></symbol><symbol id="melhor-escolha" viewBox="0 0 511.994 511.994"><title>melhor-escolha</title><path d="m229.515 377.391-12.722-12.719c-.04 8.25-6.74 14.926-15 14.926h-57.267v3.067c0 8.284-6.716 15-15 15h-102.682c83.082 152.278 303.116 152.072 386.032 0h-134.435c-18.476 0-35.852-7.201-48.926-20.274z"/><path d="m144.527 129.731v3.067h57.267c8.284 0 15 6.716 15 15v3.066h30.495l38.968-68.191c-76.83-25.77-157.453 1.573-196.009 32.058h39.279c8.284 0 15 6.716 15 15z"/><path d="m114.527 144.731h-57.562c-54.472 58.881-71.733 147.836-43.709 222.934h101.271z"/><path d="m144.527 162.798h42.267v186.8h-42.267z"/><path d="m472.794 144.731h-72.267c-8.284 0-15-6.716-15-15v-99.384c0-16.597-13.405-30.149-30.148-30.149-6.69 0-12.118 5.428-12.118 12.1 0 20.328-5.331 40.405-15.416 58.062l-58.827 102.947c-2.671 4.673-7.641 7.558-13.023 7.558h-39.2v141.387l33.932 33.923c7.411 7.411 17.253 11.491 27.716 11.491h194.353c21.601 0 39.2-17.479 39.2-39.2v-144.535c-.002-21.706-17.564-39.2-39.202-39.2z"/></symbol><symbol id="edicao-limitada" viewBox="0 0 512 512"><title>edicao-limitada</title><path d="m507.607 245.401-25.247-25.247 16.209-31.813c3.761-7.381.826-16.413-6.555-20.174l-31.812-16.211 5.585-35.26c1.296-8.182-4.286-15.865-12.468-17.162l-35.264-5.588-5.584-35.261c-1.295-8.182-8.982-13.768-17.161-12.469l-35.265 5.583-16.207-31.809c-3.761-7.381-12.792-10.315-20.174-6.555l-31.811 16.206-25.248-25.248c-5.853-5.858-15.355-5.857-21.212 0l-25.247 25.247-31.811-16.206c-7.382-3.76-16.413-.826-20.174 6.555l-16.209 31.808-35.265-5.583c-8.179-1.299-15.865 4.287-17.161 12.469l-5.584 35.261-35.264 5.588c-8.182 1.296-13.764 8.98-12.468 17.162l5.585 35.26-31.812 16.211c-7.381 3.761-10.315 12.793-6.555 20.174l16.209 31.813-25.243 25.235c-5.857 5.857-5.858 15.354-.001 21.212l25.247 25.247-16.21 31.814c-3.761 7.381-.826 16.413 6.555 20.174l31.812 16.211-5.585 35.26c-1.296 8.182 4.286 15.865 12.468 17.162l35.264 5.588 5.584 35.261c1.295 8.182 8.982 13.768 17.161 12.469l35.265-5.583 16.209 31.808c3.761 7.381 12.792 10.315 20.174 6.555l31.811-16.206 25.248 25.247c5.853 5.858 15.355 5.857 21.212 0l25.247-25.247 31.811 16.206c7.382 3.76 16.413.826 20.174-6.555l16.209-31.808 35.265 5.583c8.179 1.299 15.865-4.287 17.161-12.469l5.584-35.261 35.264-5.588c8.182-1.296 13.764-8.98 12.468-17.162l-5.585-35.26 31.812-16.211c7.381-3.761 10.315-12.793 6.555-20.174l-16.209-31.813 25.246-25.234c5.854-5.857 5.855-15.354-.003-21.212zm-251.607 170.199c-88.004 0-159.6-71.596-159.6-159.6 8.767-211.731 310.465-211.67 319.2.001 0 88.003-71.596 159.599-159.6 159.599z"/><path d="m271.37 225.938-15.37-23.152-15.37 23.151c-1.993 3.001-4.999 5.186-8.469 6.153l-26.768 7.461 17.27 21.771c2.239 2.823 3.387 6.356 3.235 9.956l-1.175 27.768 26.042-9.698c3.377-1.258 7.094-1.258 10.47 0l26.042 9.698-1.174-27.768c-.152-3.599.996-7.133 3.234-9.955l17.27-21.772-26.768-7.461c-3.47-.967-6.476-3.151-8.469-6.152z"/><path d="m256 126.4c-71.462 0-129.6 58.138-129.6 129.6 7.119 171.932 252.107 171.882 259.2-.001 0-71.461-58.138-129.599-129.6-129.599zm88.153 114.09-27.841 35.101 1.893 44.765c.213 5.021-2.104 9.815-6.17 12.77-4.066 2.953-9.342 3.675-14.052 1.921l-41.983-15.636-41.983 15.635c-4.71 1.754-9.985 1.032-14.052-1.921-4.066-2.954-6.383-7.748-6.17-12.77l1.893-44.765-27.841-35.101c-3.123-3.938-4.067-9.177-2.514-13.957s5.396-8.464 10.238-9.813l43.154-12.028 24.777-37.321c5.727-8.878 19.269-8.875 24.994 0l24.777 37.321 43.154 12.028c4.842 1.35 8.686 5.034 10.238 9.813 1.556 4.781.611 10.021-2.512 13.958z"/></symbol><symbol id="garantido" viewBox="0 0 512 512"><title>garantido</title><path d="m507.606 395.512-54.966-54.972c-5.668 11.929-16.509 21.095-30.264 24.363l-7.488 1.778-1.779 7.494c-3.039 12.799-17.333 36.901-47.42 34.455l-7.681-.624-4.006 6.575c-6.744 11.067-18.064 18.631-30.649 20.874l72.159 72.151c3.676 3.676 8.993 5.187 14.053 3.992 5.06-1.194 9.14-4.924 10.784-9.855l20.347-61.048 61.048-20.347c4.932-1.644 8.661-5.724 9.855-10.784 1.194-5.059-.317-10.377-3.993-14.052z"/><path d="m157.998 414.582-4.006-6.575-7.681.624c-30.087 2.446-44.381-21.656-47.42-34.455l-1.779-7.494-7.488-1.778c-13.755-3.268-24.596-12.434-30.264-24.363l-54.966 54.971c-3.676 3.676-5.187 8.993-3.992 14.053 1.194 5.06 4.924 9.14 9.855 10.784l61.048 20.347 20.347 61.048c1.644 4.932 5.724 8.661 10.784 9.855s10.377-.316 14.053-3.992l72.159-72.151c-12.586-2.244-23.906-9.807-30.65-20.874z"/><path d="m328.384 398.97 13.627-22.36 26.101 2.12c7.367.597 14.097-4.278 15.807-11.485l6.051-25.479 25.471-6.049c7.205-1.712 12.084-8.427 11.484-15.809l-2.12-26.094 22.359-13.626c6.324-3.854 8.889-11.746 6.039-18.582l-10.076-24.166 17.052-19.868c4.823-5.619 4.824-13.918.002-19.538l-17.054-19.875 10.076-24.168c2.85-6.835.285-14.728-6.039-18.582l-22.359-13.626 2.12-26.094c.599-7.382-4.279-14.097-11.484-15.809l-25.471-6.049-6.051-25.479c-1.711-7.207-8.44-12.082-15.807-11.485l-26.101 2.12-13.627-22.36c-3.854-6.326-11.751-8.887-18.584-6.038l-24.164 10.082-19.867-17.054c-5.619-4.823-13.92-4.823-19.539 0l-19.866 17.052-24.164-10.082c-6.837-2.851-14.729-.287-18.584 6.038l-13.627 22.36-26.101-2.12c-7.382-.591-14.096 4.278-15.807 11.485l-6.051 25.479-25.471 6.051c-7.205 1.712-12.084 8.427-11.484 15.809l2.12 26.094-22.359 13.626c-6.324 3.854-8.889 11.746-6.039 18.582l10.076 24.168-17.054 19.875c-4.822 5.62-4.821 13.919.002 19.538l17.052 19.868-10.074 24.166c-2.85 6.836-.285 14.728 6.039 18.582l22.359 13.626-2.12 26.094c-.599 7.382 4.279 14.097 11.484 15.809l25.471 6.049 6.051 25.479c1.712 7.207 8.426 12.076 15.807 11.485l26.101-2.12 13.627 22.36c3.854 6.325 11.747 8.889 18.584 6.038l24.164-10.082 19.866 17.051c5.619 4.823 13.92 4.823 19.539 0l19.866-17.051 24.164 10.082c6.832 2.849 14.729.287 18.583-6.038zm-77.844-84.163c-5.856 5.857-15.355 5.859-21.213 0l-88.367-88.367c-5.858-5.857-5.858-15.355 0-21.213l45.444-45.445c5.857-5.858 15.355-5.858 21.213 0l32.316 32.315 72.482-72.482c5.857-5.858 15.355-5.858 21.213 0l45.444 45.444c5.858 5.858 5.858 15.355 0 21.213z"/><path d="m250.54 223.917c-5.857 5.858-15.355 5.858-21.213 0l-32.316-32.315-24.231 24.231 67.154 67.153 107.32-107.32-24.231-24.231z"/></symbol><symbol id="complacente" viewBox="0 0 512 512"><title>complacente</title><path d="m274.371 408.109c0-8.444.795-16.705 2.298-24.719h-197.402c-8.284 0-15-6.716-15-15s6.716-15 15-15h206.812c5.807-12.908 13.601-24.736 22.992-35.091-1.529.526-3.163.824-4.87.824h-224.934c-19.801-.7-19.939-29.242 0-30h224.933c10.102-.193 17.633 10.415 14.176 19.871 17.952-16.282 40.331-27.762 65.091-32.406v-165.265c0-26.634-21.694-47.133-47.134-47.133h-42.012c-1.983 34.594-30.745 62.133-65.827 62.133h-73.521c-35.082 0-63.844-27.539-65.827-62.133h-42.012c-25.441 0-47.134 20.501-47.134 47.133v353.467c0 26.577 21.65 47.133 47.134 47.133h276.72c-30.172-24.556-49.483-61.97-49.483-103.814zm-195.104-247.519h224.934c8.284 0 15 6.716 15 15s-6.716 15-15 15h-224.934c-19.812-.705-19.93-29.245 0-30zm0 64.267h224.934c8.284 0 15 6.716 15 15s-6.716 15-15 15h-224.934c-19.812-.705-19.93-29.246 0-30zm80.333 222.8h-80.333c-19.854-.725-19.89-29.26 0-30h80.333c8.284 0 15 6.716 15 15s-6.716 15-15 15z"/><path d="m154.973 96.323h73.521c49.35-2.211 46.734-73.109-2.679-71.893-11.043-32.481-57.133-32.461-68.163 0-49.214-1.306-52.202 69.559-2.679 71.893z"/><path d="m408.185 304.294c-57.244 0-103.815 46.571-103.815 103.814 5.219 137.536 202.431 137.498 207.63-.001 0-57.242-46.571-103.813-103.815-103.813zm41.752 93.655s-41.524 41.524-41.524 41.524c-5.857 5.858-15.353 5.858-21.211.002 0 0-20.766-20.758-20.766-20.758-13.533-14.561 6.629-34.752 21.209-21.217 0 0 10.16 10.155 10.16 10.155l30.92-30.919c14.57-13.535 34.746 6.644 21.212 21.213z"/></symbol><symbol id="arquivo" viewBox="-55 1 511 511.999"><title>arquivo</title><path d="m113.199219 95.53125v-95.53125h-1.066407c-3.988281 0-7.808593 1.585938-10.628906 4.402344l-96.601562 96.601562c-2.820313 2.820313-4.402344 6.640625-4.402344 10.628906v1.070313h95.53125c9.46875 0 17.167969-7.703125 17.167969-17.171875zm0 0"/><path d="m336.464844 401.4375v-354.207031c0-25.96875-20.996094-47.230469-47.230469-47.230469h-145.96875v95.53125c0 26.042969-21.191406 47.230469-47.234375 47.230469h-95.53125v258.675781c0 26.042969 21.1875 47.230469 47.230469 47.230469h241.503906c25.96875 0 47.230469-20.996094 47.230469-47.230469zm-159.933594-49.371094h-80.5c-8.300781 0-15.03125-6.730468-15.03125-15.03125 0-8.300781 6.730469-15.03125 15.03125-15.03125h80.5c8.304688 0 15.03125 6.730469 15.03125 15.03125 0 8.300782-6.726562 15.03125-15.03125 15.03125zm64.402344-64.402344h-144.902344c-8.300781 0-15.03125-6.726562-15.03125-15.03125 0-8.300781 6.730469-15.03125 15.03125-15.03125h144.902344c8.300781 0 15.03125 6.730469 15.03125 15.03125 0 8.304688-6.730469 15.03125-15.03125 15.03125zm0-64.398437h-144.902344c-8.300781 0-15.03125-6.730469-15.03125-15.03125s6.730469-15.03125 15.03125-15.03125h144.902344c8.300781 0 15.03125 6.730469 15.03125 15.03125s-6.730469 15.03125-15.03125 15.03125zm0 0"/><path d="m366.527344 65.121094v336.316406c0 42.617188-34.671875 77.292969-77.292969 77.292969h-222.226563c5.96875 19.25 23.9375 33.269531 45.125 33.269531h241.5c25.972657 0 47.234376-20.996094 47.234376-47.230469v-354.207031c0-21.535156-14.445313-39.820312-34.339844-45.441406zm0 0"/></symbol><symbol id="camera" viewBox="0 0 512 512"><title>camera</title><path d="m90 256v195h332v-195c0-41.353 33.633-75 75-75h15v-45c0-8.291-6.709-15-15-15h-111.742l-25.84-51.709c-2.549-5.083-7.734-8.291-13.418-8.291h-180c-5.684 0-10.869 3.208-13.418 8.291l-25.84 51.709h-36.742v-15c0-8.291-6.709-15-15-15s-15 6.709-15 15v15h-45c-8.291 0-15 6.709-15 15v45h15c41.367 0 75 33.647 75 75zm136-135h60c8.291 0 15 6.709 15 15s-6.709 15-15 15h-60c-8.291 0-15-6.709-15-15s6.709-15 15-15zm30 60c57.891 0 105 47.109 105 105s-47.109 105-105 105-105-47.109-105-105 47.109-105 105-105z"/><path d="m256 361c41.367 0 75-33.647 75-75s-33.633-75-75-75-75 33.647-75 75 33.633 75 75 75zm0-120c24.814 0 45 20.186 45 45s-20.186 45-45 45-45-20.186-45-45 20.186-45 45-45z"/><circle cx="256" cy="286" r="15"/><path d="m15 451h45v-195c0-24.814-20.186-45-45-45h-15v225c0 8.291 6.709 15 15 15z"/><path d="m512 211h-15c-24.814 0-45 20.186-45 45v195h45c8.291 0 15-6.709 15-15z"/></symbol><symbol id="cavalete" viewBox="0 0 512 512"><title>cavalete</title><path d="m239.711 17.607c1.597-9.153-5.414-17.607-14.766-17.607h-30.908c-7.266 0-13.506 5.229-14.766 12.393l-3.112 17.607h61.368z"/><path d="m336.916 30-3.104-17.607c-1.259-7.164-7.5-12.393-14.765-12.393h-30.938c-9.28 0-16.428 8.432-14.766 17.607l2.191 12.393z"/><path d="m418.451 494.393-12.76-72.393c-9.76 0-318.31 0-298.297 0l-12.761 72.393c-1.597 9.153 5.414 17.607 14.765 17.607h30.908c7.266 0 13.506-5.229 14.766-12.393l8.392-47.607h186.127l8.392 47.607c1.26 7.163 7.5 12.393 14.766 12.393h30.938c9.35 0 16.361-8.454 14.764-17.607z"/><path d="m286 187.211-64.395 64.395c-5.859 5.859-15.352 5.859-21.211 0l-19.394-19.395-38.789 38.789h227.578z"/><path d="m46 392h420c8.291 0 15-6.709 15-15v-302c0-8.291-6.709-15-15-15h-420c-8.291 0-15 6.709-15 15v302c0 8.291 6.709 15 15 15zm49.395-116.605 75-75c5.859-5.859 15.352-5.859 21.211 0l19.394 19.394 64.395-64.395c5.859-5.859 15.352-5.859 21.211 0l120 120c4.277 4.292 5.566 10.737 3.252 16.348s-7.794 9.258-13.858 9.258h-300c-6.064 0-11.543-3.647-13.857-9.258s-1.026-12.055 3.252-16.347z"/></symbol><symbol id="calendario" viewBox="0 0 512 512"><title>calendario</title><path d="m188 200h44v39h-44z"/><path d="m280 200h44v39h-44z"/><path d="m280 371h44v40h-44z"/><path d="m280 286h44v39h-44z"/><path d="m372 200h44v39h-44z"/><path d="m372 286h44v39h-44z"/><path d="m341 112.353a13.015 13.015 0 0 0 13-13v-42a13 13 0 0 0 -26 0v42a13.015 13.015 0 0 0 13 13z"/><path d="m426 112.353a13.015 13.015 0 0 0 13-13v-42a13 13 0 0 0 -26 0v42a13.015 13.015 0 0 0 13 13z"/><path d="m256 112.353a13.015 13.015 0 0 0 13-13v-42a13 13 0 0 0 -26 0v42a13.015 13.015 0 0 0 13 13z"/><path d="m86 112.353a13.015 13.015 0 0 0 13-13v-42a13 13 0 0 0 -26 0v42a13.015 13.015 0 0 0 13 13z"/><path d="m171 112.353a13.015 13.015 0 0 0 13-13v-42a13 13 0 0 0 -26 0v42a13.015 13.015 0 0 0 13 13z"/><path d="m372 371h44v40h-44z"/><path d="m188 371h44v40h-44z"/><path d="m95 286h45v39h-45z"/><path d="m95 371h45v40h-45z"/><path d="m466 81h-17v18.353a23 23 0 0 1 -46 0v-18.353h-39v18.353a23 23 0 1 1 -46 0v-18.353h-39v18.353a23 23 0 1 1 -46 0v-18.353h-39v18.353a23 23 0 1 1 -46 0v-18.353h-39v18.353a23 23 0 1 1 -46 0v-18.353h-17a14.785 14.785 0 0 0 -15 14.726v48.274h450v-48.274a14.785 14.785 0 0 0 -15-14.726z"/><path d="m31 450.722a15.183 15.183 0 0 0 14.931 15.178l420 2.1h.069a15.071 15.071 0 0 0 10.58-4.546 15.306 15.306 0 0 0 4.42-10.807v-298.647h-450zm331-251.722a9 9 0 0 1 9-9h46a9 9 0 0 1 9 9v41a9 9 0 0 1 -9 9h-46a9 9 0 0 1 -9-9zm0 86a9 9 0 0 1 9-9h46a9 9 0 0 1 9 9v41a9 9 0 0 1 -9 9h-46a9 9 0 0 1 -9-9zm0 85a9 9 0 0 1 9-9h46a9 9 0 0 1 9 9v41a9 9 0 0 1 -9 9h-46a9 9 0 0 1 -9-9zm-92-171a9 9 0 0 1 9-9h46a9 9 0 0 1 9 9v41a9 9 0 0 1 -9 9h-46a9 9 0 0 1 -9-9zm0 86a9 9 0 0 1 9-9h46a9 9 0 0 1 9 9v41a9 9 0 0 1 -9 9h-46a9 9 0 0 1 -9-9zm0 85a9 9 0 0 1 9-9h46a9 9 0 0 1 9 9v41a9 9 0 0 1 -9 9h-46a9 9 0 0 1 -9-9zm-92-171a9 9 0 0 1 9-9h46a9 9 0 0 1 9 9v41a9 9 0 0 1 -9 9h-46a9 9 0 0 1 -9-9zm0 86a9 9 0 0 1 9-9h46a9 9 0 0 1 9 9v41a9 9 0 0 1 -9 9h-46a9 9 0 0 1 -9-9zm0 85a9 9 0 0 1 9-9h46a9 9 0 0 1 9 9v41a9 9 0 0 1 -9 9h-46a9 9 0 0 1 -9-9zm-93-85a9 9 0 0 1 9-9h46a9 9 0 0 1 9 9v41a9 9 0 0 1 -9 9h-46a9 9 0 0 1 -9-9zm0 85a9 9 0 0 1 9-9h46a9 9 0 0 1 9 9v41a9 9 0 0 1 -9 9h-46a9 9 0 0 1 -9-9zm-32-193.887a5 5 0 0 1 10 0v4.778a5 5 0 0 1 -10 0zm0 26.6a5 5 0 1 1 10 0v74.178a5 5 0 0 1 -10 0z"/><path d="m188 286h44v39h-44z"/></symbol><symbol id="senha" viewBox="0 0 512 512"><title>senha</title><path d="m269.88 77c1.648 0 3.12-.362 5.12-.25v-40.75h-38v40.953a75.441 75.441 0 0 1 7.662.047z"/><path d="m227 78.732v-42.432c-54 3.936-96 49.055-96 103.954v71.746h42v-63.563a71.91 71.91 0 0 1 54-69.705z"/><path d="m381 212v-71.751c0-54.9-42-100.015-96-103.953v41.843c32 6.915 57 35.813 57 70.292v63.569z"/><path d="m256.3 315.106c-9.7 0-17.9 8.014-17.9 17.5a17.436 17.436 0 0 0 10.539 16.218 5 5 0 0 1 3.063 4.61v25.96a3.5 3.5 0 0 0 7 0v-25.96a5 5 0 0 1 3.251-4.685 16.914 16.914 0 0 0 11.28-16.143 17.388 17.388 0 0 0 -17.233-17.5z"/><path d="m256 270a79 79 0 1 0 79 79 79.089 79.089 0 0 0 -79-79zm13 86.678v22.716a13.5 13.5 0 0 1 -27 0v-22.873a27.6 27.6 0 1 1 41.531-23.915 26.591 26.591 0 0 1 -14.531 24.072z"/><path d="m409 222h-306a15 15 0 0 0 -15 15v224a15 15 0 0 0 15 15h306a15 15 0 0 0 15-15v-224a15 15 0 0 0 -15-15zm-295 101.855a5 5 0 0 1 -10 0v-49.732a5 5 0 0 1 10 0zm0-70.789a5 5 0 0 1 -10 0v-4.61a5 5 0 0 1 10 0zm142 184.934a89 89 0 1 1 89-89 89.1 89.1 0 0 1 -89 89z"/></symbol><symbol id="tela" viewBox="0 0 512 512"><title>tela</title><path d="m208 378h96v67h-96z"/><path d="m32 353.023a15.245 15.245 0 0 0 15.287 14.977h417.426a15.245 15.245 0 0 0 15.287-14.977v-33.023h-448zm224-24.666a16 16 0 1 1 -16 16 16.019 16.019 0 0 1 16-16z"/><circle cx="256" cy="344.357" r="6"/><path d="m168 462.225v10.775h176v-10.775a7 7 0 0 0 -6.756-7.225h-162.488a7 7 0 0 0 -6.756 7.225z"/><path d="m464.713 39h-417.426a15.514 15.514 0 0 0 -15.287 15.289v255.711h448v-255.711a15.514 15.514 0 0 0 -15.287-15.289zm-7.713 239a11 11 0 0 1 -11 11h-381a11 11 0 0 1 -11-11v-206a11 11 0 0 1 11-11h381a11 11 0 0 1 11 11z"/><path d="m446 71h-381a1 1 0 0 0 -1 1v206a1 1 0 0 0 1 1h381a1 1 0 0 0 1-1v-206a1 1 0 0 0 -1-1zm-358 104a5 5 0 0 1 -10 0v-60.182a5 5 0 1 1 10 0zm0-82a5 5 0 0 1 -10 0v-4.782a5 5 0 0 1 10 0z"/></symbol><symbol id="ajustamento" viewBox="0 0 512 512"><title>ajustamento</title><path d="M368,391.5a8,8,0,0,0,16,0V328H368Z"/><path d="M384,119.5a8,8,0,0,0-16,0V284h16Z"/><path d="M278,174H234a12,12,0,0,0,0,24h44a12,12,0,0,0,0-24Z"/><path d="M158,244H114a12,12,0,0,0,0,24h44a12,12,0,0,0,0-24Z"/><path d="M248,391.5a8,8,0,0,0,16,0V208H248Z"/><path d="M264,119.5a8,8,0,0,0-16,0V164h16Z"/><path d="M462,31H50A19,19,0,0,0,31,50V463a19,19,0,0,0,19,19H462a19,19,0,0,0,19-19V50A19,19,0,0,0,462,31Zm1,436.652c-.322.065-.666.348-1,.348H50c-2.762,0-5-2.738-5-5.5V49.5c0-2.762,2.238-4.5,5-4.5H462a4.843,4.843,0,0,1,5,4.812l.015,412.812A5.138,5.138,0,0,1,463,467.652Z"/><path d="M144,119.5a8,8,0,0,0-16,0V234h16Z"/><path d="M398,294H354a12,12,0,0,0,0,24h44a12,12,0,0,0,0-24Z"/><path d="M128,391.5a8,8,0,0,0,16,0V278H128Z"/><path d="M55,55V458H457.015L457,55ZM81,177.855a5,5,0,0,1-10,0V108.123a5,5,0,1,1,10,0Zm0-90.789a5,5,0,0,1-10,0v-4.61a5,5,0,0,1,10,0ZM158,278h-4V391.5a18,18,0,0,1-36,0V278h-4a22,22,0,0,1,0-44h4V119.5a18,18,0,0,1,36,0V234h4a22,22,0,0,1,0,44Zm120-70h-4V391.5a18,18,0,0,1-36,0V208h-4a22,22,0,0,1,0-44h4V119.5a18,18,0,0,1,36,0V164h4a22,22,0,0,1,0,44ZM398,328h-4v63.5a18,18,0,0,1-36,0V328h-4a22,22,0,0,1,0-44h4V119.5a18,18,0,0,1,36,0V284h4a22,22,0,0,1,0,44Z"/></symbol><symbol id="dinheiro" viewBox="0 0 512 512"><title>dinheiro</title><path d="M435,370v19h39.755A15.228,15.228,0,0,0,490,374V335H470.245A35.25,35.25,0,0,0,435,370Z"/><circle cx="96" cy="256" r="16.437"/><path d="M76,141.982V123H37.245A15.228,15.228,0,0,0,22,138v39H41.227A34.862,34.862,0,0,0,76,141.982Z"/><path d="M256,162.5A93.5,93.5,0,1,0,349.5,256,93.606,93.606,0,0,0,256,162.5Zm0,89.134a28,28,0,0,1,5,55.544v7.784a5,5,0,0,1-10,0v-7.784a28.04,28.04,0,0,1-23-27.544,5,5,0,0,1,10,0,18.009,18.009,0,0,0,17.439,17.971,2.838,2.838,0,0,1,1.122,0A17.99,17.99,0,0,0,256,261.634a28,28,0,0,1-5-55.544v-9.052a5,5,0,0,1,10,0v9.052a28.04,28.04,0,0,1,23,27.544,5,5,0,1,1-10,0,18,18,0,1,0-18,18Z"/><path d="M41.227,335H22v39a15.228,15.228,0,0,0,15.245,15H76V370A34.846,34.846,0,0,0,41.227,335Z"/><circle cx="416" cy="256" r="16.437"/><path d="M425,141.982V123H86v18.982A44.872,44.872,0,0,1,41.227,187H22V325H41.227A44.858,44.858,0,0,1,86,370v19H425V370a45.261,45.261,0,0,1,45.245-45H490V187H470.245A45.276,45.276,0,0,1,425,141.982ZM46,290a5,5,0,0,1-10,0V228.818a5,5,0,1,1,10,0Zm0-83a5,5,0,0,1-10,0v-4.778a5,5,0,0,1,10,0Zm50,75.442A26.438,26.438,0,1,1,122.437,256,26.467,26.467,0,0,1,96,282.438ZM256,359.5A103.5,103.5,0,1,1,359.5,256,103.617,103.617,0,0,1,256,359.5Zm160-77.062A26.438,26.438,0,1,1,442.437,256,26.467,26.467,0,0,1,416,282.438Z"/><path d="M474.755,123H435v18.982A35.265,35.265,0,0,0,470.245,177H490V138A15.228,15.228,0,0,0,474.755,123Z"/></symbol><symbol id="jogar" viewBox="0 0 512 512"><title>jogar</title><path d="m256 61c-107.523 0-195 87.477-195 195s87.477 195 195 195 195-87.477 195-195-87.477-195-195-195zm-95.078 57.984a168.268 168.268 0 0 0 -62.481 82.251 5 5 0 0 1 -9.441-3.283 178.344 178.344 0 0 1 66.217-87.179 5 5 0 1 1 5.709 8.211zm16.817-10.275a5 5 0 0 1 -4.7-8.828c2.371-1.262 4.8-2.485 7.231-3.639a5 5 0 1 1 4.29 9.033c-2.289 1.088-4.584 2.244-6.821 3.434zm175.666 151.675-160 87.791a5 5 0 0 1 -7.405-4.384v-175.582a5 5 0 0 1 7.405-4.384l160 87.791a5 5 0 0 1 0 8.768z"/><path d="m196 335.345 144.605-79.345-144.605-79.345z"/><path d="m256 31a225 225 0 0 0 -159.1 384.1 225 225 0 1 0 318.2-318.2 223.525 223.525 0 0 0 -159.1-65.9zm0 430c-113.037 0-205-91.963-205-205s91.963-205 205-205 205 91.963 205 205-91.963 205-205 205z"/></symbol><symbol id="globo" viewBox="0 0 511.906 511.906"><title>globo</title><path d="m137.136 120.795-54.63-54.63c-50.61 59.32-58.38 142.9-23.31 209.66 10.31-56.02 37.44-110.73 77.94-155.03z"/><path d="m138.036 354.785c65.458 34.567 149.365 28.293 209.76-23.33l-54.64-54.64c-44.32 40.52-99.07 67.66-155.12 77.97z"/><path d="m313.426 21.595c-65.58-34.619-149.441-28.165-209.71 23.35l54.65 54.65c44.52-40.6 99.06-67.72 155.06-78z"/><path d="m392.366 100.525c-10.29 56.01-37.41 110.56-78 155.07l54.64 54.64c51.498-60.246 58.001-144.042 23.36-209.71z"/><path d="m401.41 12.547c-5.857-5.857-15.355-5.857-21.213 0l-35.137 35.137c-58.994 4.506-118.265 30.491-165.464 73.141l113.53 113.53c42.655-47.205 68.659-106.464 73.153-165.464l24.169-24.168c74.704 85.496 71.807 215.859-10.25 297.918-50.888 50.889-121.74 72.666-191.394 60.864-.525-.117-1.058-.21-1.602-.271-38.818-6.875-74.899-24.109-104.923-50.343l24.177-24.177c58.973-4.536 118.483-30.565 165.46-73.139l-113.54-113.54c-42.574 46.997-68.603 106.498-73.129 165.462l-35.144 35.144c-5.858 5.857-5.858 15.355 0 21.213 33.613 33.613 75.163 56.402 120.423 66.628v51.425h-67.824c-8.284 0-15 6.716-15 15s6.716 15 15 15h258.583c8.284 0 15-6.716 15-15s-6.716-15-15-15h-67.82v-54.597c179.278-50.478 243.774-278.937 107.945-414.763z"/></symbol><symbol id="check" viewBox="0 -46 417.81333 417"><title>check</title><path d="m159.988281 318.582031c-3.988281 4.011719-9.429687 6.25-15.082031 6.25s-11.09375-2.238281-15.082031-6.25l-120.449219-120.46875c-12.5-12.5-12.5-32.769531 0-45.246093l15.082031-15.085938c12.503907-12.5 32.75-12.5 45.25 0l75.199219 75.203125 203.199219-203.203125c12.503906-12.5 32.769531-12.5 45.25 0l15.082031 15.085938c12.5 12.5 12.5 32.765624 0 45.246093zm0 0"/></symbol><symbol id="eye" viewBox="0 0 512 512"><title>eye</title><g> <g> <path d="M508.177,245.995C503.607,240.897,393.682,121,256,121S8.394,240.897,3.823,245.995c-5.098,5.698-5.098,14.312,0,20.01 C8.394,271.103,118.32,391,256,391s247.606-119.897,252.177-124.995C513.274,260.307,513.274,251.693,508.177,245.995z M256,361 c-57.891,0-105-47.109-105-105s47.109-105,105-105s105,47.109,105,105S313.891,361,256,361z"/> </g> </g><g> <g> <path d="M271,226c0-15.09,7.491-28.365,18.887-36.53C279.661,184.235,268.255,181,256,181c-41.353,0-75,33.647-75,75 c0,41.353,33.647,75,75,75c37.024,0,67.668-27.034,73.722-62.358C299.516,278.367,271,255.522,271,226z"/> </g> </g></symbol></svg>